<svg xmlns="http://www.w3.org/2000/svg" version="1.1" xmlns:xlink="http://www.w3.org/1999/xlink" xmlns:svgjs="http://svgjs.dev/svgjs" width="1500" height="935" viewBox="0 0 1500 935"><g transform="matrix(1,0,0,1,-0.9090909090909918,185.9354643602012)"><svg viewBox="0 0 396 247" data-background-color="#ffffff" preserveAspectRatio="xMidYMid meet" height="935" width="1500" xmlns="http://www.w3.org/2000/svg" xmlns:xlink="http://www.w3.org/1999/xlink"><g id="tight-bounds" transform="matrix(1,0,0,1,0.2400000000000091,-0.09999999999999432)"><svg viewBox="0 0 395.52 247.2" height="247.2" width="395.52"><g><svg></svg></g><g><svg viewBox="0 0 395.52 247.2" height="247.2" width="395.52"><g transform="matrix(1,0,0,1,75.54432000000001,61.69143657931035)"><svg viewBox="0 0 244.43135999999996 123.81712684137929" height="123.81712684137929" width="244.43135999999996"><g><svg viewBox="0 0 244.43135999999996 123.81712684137929" height="123.81712684137929" width="244.43135999999996"><g><svg viewBox="0 0 244.43135999999996 123.81712684137929" height="123.81712684137929" width="244.43135999999996"><g><svg viewBox="0 0 244.43135999999996 123.81712684137929" height="123.81712684137929" width="244.43135999999996"><g id="textblocktransform"><svg viewBox="0 0 244.43135999999996 123.81712684137929" height="123.81712684137929" width="244.43135999999996" id="textblock"><g><svg viewBox="0 0 244.43135999999996 123.81712684137929" height="123.81712684137929" width="244.43135999999996"><g transform="matrix(1,0,0,1,0,0)"><svg width="244.43135999999996" viewBox="3.91 -35.86 70.79 35.86" height="123.81712684137929" data-palette-color="#f70feb"><path d="M11.35-25.29L11.35-1.29Q11.35-0.56 11.07-0.28 10.79 0 10.08 0L10.08 0 5.18 0Q4.49 0 4.2-0.28 3.91-0.56 3.91-1.29L3.91-1.29 3.91-32.23Q3.91-33.67 4.47-34.34 5.03-35.01 6.45-35.01L6.45-35.01 8.72-35.01Q9.96-35.01 11.07-34.68 12.18-34.35 13.44-33.2 14.7-32.06 16.37-29.65 18.04-27.25 20.41-23.1L20.41-23.1Q22.68-19.14 24.06-16.77 25.44-14.4 26.2-13.16 26.95-11.91 27.33-11.38 27.71-10.84 27.95-10.5L27.95-10.5 27.95-31.1Q27.95-31.81 28.17-32.18L28.17-32.18Q29.22-33.79 31.08-35.57L31.08-35.57Q31.45-35.86 31.69-35.86L31.69-35.86Q31.96-35.86 32.28-35.57L32.28-35.57Q33.28-34.64 33.97-33.8 34.67-32.96 35.18-32.18L35.18-32.18Q35.4-31.79 35.4-31.1L35.4-31.1 35.4-2.03Q35.4-0.93 34.99-0.46 34.57 0 33.47 0L33.47 0 31.13 0Q30.08 0 28.98-0.35 27.88-0.71 26.49-1.97 25.1-3.22 23.19-5.88 21.29-8.54 18.6-13.16L18.6-13.16Q16.33-17.09 14.98-19.41 13.62-21.73 12.92-22.91 12.21-24.1 11.89-24.57 11.57-25.05 11.35-25.29L11.35-25.29ZM50.66-25.29L50.66-1.29Q50.66-0.56 50.38-0.28 50.1 0 49.39 0L49.39 0 44.48 0Q43.8 0 43.5-0.28 43.21-0.56 43.21-1.29L43.21-1.29 43.21-32.23Q43.21-33.67 43.77-34.34 44.33-35.01 45.75-35.01L45.75-35.01 48.02-35.01Q49.27-35.01 50.38-34.68 51.49-34.35 52.74-33.2 54-32.06 55.67-29.65 57.35-27.25 59.71-23.1L59.71-23.1Q61.98-19.14 63.36-16.77 64.74-14.4 65.5-13.16 66.26-11.91 66.64-11.38 67.01-10.84 67.26-10.5L67.26-10.5 67.26-31.1Q67.26-31.81 67.48-32.18L67.48-32.18Q68.53-33.79 70.38-35.57L70.38-35.57Q70.75-35.86 70.99-35.86L70.99-35.86Q71.26-35.86 71.58-35.57L71.58-35.57Q72.58-34.64 73.28-33.8 73.97-32.96 74.48-32.18L74.48-32.18Q74.7-31.79 74.7-31.1L74.7-31.1 74.7-2.03Q74.7-0.93 74.29-0.46 73.87 0 72.78 0L72.78 0 70.43 0Q69.38 0 68.28-0.35 67.19-0.71 65.79-1.97 64.4-3.22 62.5-5.88 60.59-8.54 57.91-13.16L57.91-13.16Q55.64-17.09 54.28-19.41 52.93-21.73 52.22-22.91 51.51-24.1 51.19-24.57 50.88-25.05 50.66-25.29L50.66-25.29Z" opacity="1" transform="matrix(1,0,0,1,0,0)" fill="#f70feb" class="wordmark-text-0" data-fill-palette-color="primary" id="text-0"></path></svg></g></svg></g></svg></g></svg></g><g></g></svg></g></svg></g></svg></g><g><path d="M116.333 32.461A122.216 122.216 0 0 1 279.187 32.461L268.021 32.461A111.05 111.05 0 0 0 127.499 32.461L116.333 32.461M116.333 214.739A122.216 122.216 0 0 0 279.187 214.739L268.021 214.739A111.05 111.05 0 0 1 127.499 214.739L116.333 214.739" fill="#f70feb" stroke="transparent" data-fill-palette-color="tertiary"></path></g></svg></g><defs></defs></svg><rect width="395.52" height="247.2" fill="none" stroke="none" visibility="hidden"></rect></g></svg></g></svg>